<mxfile host="Electron" modified="2023-12-05T18:42:00.051Z" agent="Mozilla/5.0 (Windows NT 10.0; Win64; x64) AppleWebKit/537.36 (KHTML, like Gecko) draw.io/22.1.2 Chrome/114.0.5735.289 Electron/25.9.4 Safari/537.36" etag="4MF9ERp0gPF7i_qWoSHD" version="22.1.2" type="device">
  <diagram name="Page-1" id="2YBvvXClWsGukQMizWep">
    <mxGraphModel dx="1418" dy="820" grid="1" gridSize="10" guides="1" tooltips="1" connect="1" arrows="1" fold="1" page="1" pageScale="1" pageWidth="850" pageHeight="1100" math="0" shadow="0">
      <root>
        <mxCell id="0" />
        <mxCell id="1" parent="0" />
        <mxCell id="aM9ryv3xv72pqoxQDRHE-1" value="App" style="shape=umlLifeline;perimeter=lifelinePerimeter;whiteSpace=wrap;html=1;container=0;dropTarget=0;collapsible=0;recursiveResize=0;outlineConnect=0;portConstraint=eastwest;newEdgeStyle={&quot;edgeStyle&quot;:&quot;elbowEdgeStyle&quot;,&quot;elbow&quot;:&quot;vertical&quot;,&quot;curved&quot;:0,&quot;rounded&quot;:0};" parent="1" vertex="1">
          <mxGeometry x="40" y="40" width="100" height="300" as="geometry" />
        </mxCell>
        <mxCell id="aM9ryv3xv72pqoxQDRHE-2" value="" style="html=1;points=[];perimeter=orthogonalPerimeter;outlineConnect=0;targetShapes=umlLifeline;portConstraint=eastwest;newEdgeStyle={&quot;edgeStyle&quot;:&quot;elbowEdgeStyle&quot;,&quot;elbow&quot;:&quot;vertical&quot;,&quot;curved&quot;:0,&quot;rounded&quot;:0};" parent="aM9ryv3xv72pqoxQDRHE-1" vertex="1">
          <mxGeometry x="45" y="70" width="10" height="190" as="geometry" />
        </mxCell>
        <mxCell id="aM9ryv3xv72pqoxQDRHE-3" value="dispatch" style="html=1;verticalAlign=bottom;startArrow=oval;endArrow=block;startSize=8;edgeStyle=elbowEdgeStyle;elbow=vertical;curved=0;rounded=0;" parent="aM9ryv3xv72pqoxQDRHE-1" target="aM9ryv3xv72pqoxQDRHE-2" edge="1">
          <mxGeometry relative="1" as="geometry">
            <mxPoint x="-15" y="70" as="sourcePoint" />
          </mxGeometry>
        </mxCell>
        <mxCell id="aM9ryv3xv72pqoxQDRHE-5" value="Backend" style="shape=umlLifeline;perimeter=lifelinePerimeter;whiteSpace=wrap;html=1;container=0;dropTarget=0;collapsible=0;recursiveResize=0;outlineConnect=0;portConstraint=eastwest;newEdgeStyle={&quot;edgeStyle&quot;:&quot;elbowEdgeStyle&quot;,&quot;elbow&quot;:&quot;vertical&quot;,&quot;curved&quot;:0,&quot;rounded&quot;:0};" parent="1" vertex="1">
          <mxGeometry x="220" y="40" width="100" height="300" as="geometry" />
        </mxCell>
        <mxCell id="aM9ryv3xv72pqoxQDRHE-6" value="" style="html=1;points=[];perimeter=orthogonalPerimeter;outlineConnect=0;targetShapes=umlLifeline;portConstraint=eastwest;newEdgeStyle={&quot;edgeStyle&quot;:&quot;elbowEdgeStyle&quot;,&quot;elbow&quot;:&quot;vertical&quot;,&quot;curved&quot;:0,&quot;rounded&quot;:0};" parent="aM9ryv3xv72pqoxQDRHE-5" vertex="1">
          <mxGeometry x="45" y="80" width="10" height="170" as="geometry" />
        </mxCell>
        <mxCell id="aM9ryv3xv72pqoxQDRHE-7" value="submit" style="html=1;verticalAlign=bottom;endArrow=block;edgeStyle=elbowEdgeStyle;elbow=horizontal;curved=0;rounded=0;" parent="1" source="aM9ryv3xv72pqoxQDRHE-2" target="aM9ryv3xv72pqoxQDRHE-6" edge="1">
          <mxGeometry relative="1" as="geometry">
            <mxPoint x="195" y="130" as="sourcePoint" />
            <Array as="points">
              <mxPoint x="180" y="120" />
            </Array>
          </mxGeometry>
        </mxCell>
        <mxCell id="aM9ryv3xv72pqoxQDRHE-8" value="return" style="html=1;verticalAlign=bottom;endArrow=open;dashed=1;endSize=8;edgeStyle=elbowEdgeStyle;elbow=vertical;curved=0;rounded=0;" parent="1" edge="1">
          <mxGeometry relative="1" as="geometry">
            <mxPoint x="95" y="280" as="targetPoint" />
            <Array as="points">
              <mxPoint x="190" y="280" />
            </Array>
            <mxPoint x="265" y="280" as="sourcePoint" />
          </mxGeometry>
        </mxCell>
        <mxCell id="aM9ryv3xv72pqoxQDRHE-9" value="callback" style="html=1;verticalAlign=bottom;endArrow=block;edgeStyle=elbowEdgeStyle;elbow=vertical;curved=0;rounded=0;" parent="1" target="aM9ryv3xv72pqoxQDRHE-4" edge="1">
          <mxGeometry relative="1" as="geometry">
            <mxPoint x="750" y="590" as="sourcePoint" />
            <Array as="points">
              <mxPoint x="520" y="390" />
            </Array>
          </mxGeometry>
        </mxCell>
        <mxCell id="aM9ryv3xv72pqoxQDRHE-10" value="return" style="html=1;verticalAlign=bottom;endArrow=open;dashed=1;endSize=8;edgeStyle=elbowEdgeStyle;elbow=vertical;curved=0;rounded=0;" parent="1" source="aM9ryv3xv72pqoxQDRHE-4" edge="1">
          <mxGeometry relative="1" as="geometry">
            <mxPoint x="630" y="620" as="targetPoint" />
            <Array as="points">
              <mxPoint x="510" y="460" />
            </Array>
          </mxGeometry>
        </mxCell>
        <mxCell id="hrl10EN9nCq2Uu-qsbJR-1" value="Database" style="shape=umlLifeline;perimeter=lifelinePerimeter;whiteSpace=wrap;html=1;container=0;dropTarget=0;collapsible=0;recursiveResize=0;outlineConnect=0;portConstraint=eastwest;newEdgeStyle={&quot;edgeStyle&quot;:&quot;elbowEdgeStyle&quot;,&quot;elbow&quot;:&quot;vertical&quot;,&quot;curved&quot;:0,&quot;rounded&quot;:0};" vertex="1" parent="1">
          <mxGeometry x="420" y="40" width="100" height="300" as="geometry" />
        </mxCell>
        <mxCell id="hrl10EN9nCq2Uu-qsbJR-2" value="" style="html=1;points=[];perimeter=orthogonalPerimeter;outlineConnect=0;targetShapes=umlLifeline;portConstraint=eastwest;newEdgeStyle={&quot;edgeStyle&quot;:&quot;elbowEdgeStyle&quot;,&quot;elbow&quot;:&quot;vertical&quot;,&quot;curved&quot;:0,&quot;rounded&quot;:0};" vertex="1" parent="hrl10EN9nCq2Uu-qsbJR-1">
          <mxGeometry x="45" y="80" width="10" height="170" as="geometry" />
        </mxCell>
        <mxCell id="aM9ryv3xv72pqoxQDRHE-4" value="" style="html=1;points=[];perimeter=orthogonalPerimeter;outlineConnect=0;targetShapes=umlLifeline;portConstraint=eastwest;newEdgeStyle={&quot;edgeStyle&quot;:&quot;elbowEdgeStyle&quot;,&quot;elbow&quot;:&quot;vertical&quot;,&quot;curved&quot;:0,&quot;rounded&quot;:0};" parent="1" vertex="1">
          <mxGeometry x="690" y="630" width="10" height="80" as="geometry" />
        </mxCell>
        <mxCell id="hrl10EN9nCq2Uu-qsbJR-3" value="query user" style="html=1;verticalAlign=bottom;endArrow=block;edgeStyle=elbowEdgeStyle;elbow=horizontal;curved=0;rounded=0;" edge="1" parent="1" source="aM9ryv3xv72pqoxQDRHE-6" target="hrl10EN9nCq2Uu-qsbJR-2">
          <mxGeometry relative="1" as="geometry">
            <mxPoint x="280" y="150" as="sourcePoint" />
            <Array as="points">
              <mxPoint x="365" y="150" />
            </Array>
            <mxPoint x="450" y="150" as="targetPoint" />
          </mxGeometry>
        </mxCell>
        <mxCell id="hrl10EN9nCq2Uu-qsbJR-4" value="user profile" style="html=1;verticalAlign=bottom;endArrow=open;dashed=1;endSize=8;edgeStyle=elbowEdgeStyle;elbow=vertical;curved=0;rounded=0;" edge="1" parent="1">
          <mxGeometry relative="1" as="geometry">
            <mxPoint x="275" y="170" as="targetPoint" />
            <Array as="points">
              <mxPoint x="375" y="170" />
            </Array>
            <mxPoint x="465" y="170" as="sourcePoint" />
          </mxGeometry>
        </mxCell>
        <mxCell id="hrl10EN9nCq2Uu-qsbJR-5" value="create new user" style="html=1;verticalAlign=bottom;endArrow=block;edgeStyle=elbowEdgeStyle;elbow=horizontal;curved=0;rounded=0;" edge="1" parent="1">
          <mxGeometry relative="1" as="geometry">
            <mxPoint x="275" y="203.75" as="sourcePoint" />
            <Array as="points">
              <mxPoint x="375" y="203.75" />
            </Array>
            <mxPoint x="465" y="203.75" as="targetPoint" />
          </mxGeometry>
        </mxCell>
        <mxCell id="hrl10EN9nCq2Uu-qsbJR-6" value="Email" style="shape=umlLifeline;perimeter=lifelinePerimeter;whiteSpace=wrap;html=1;container=0;dropTarget=0;collapsible=0;recursiveResize=0;outlineConnect=0;portConstraint=eastwest;newEdgeStyle={&quot;edgeStyle&quot;:&quot;elbowEdgeStyle&quot;,&quot;elbow&quot;:&quot;vertical&quot;,&quot;curved&quot;:0,&quot;rounded&quot;:0};" vertex="1" parent="1">
          <mxGeometry x="560" y="40" width="100" height="300" as="geometry" />
        </mxCell>
        <mxCell id="hrl10EN9nCq2Uu-qsbJR-7" value="" style="html=1;points=[];perimeter=orthogonalPerimeter;outlineConnect=0;targetShapes=umlLifeline;portConstraint=eastwest;newEdgeStyle={&quot;edgeStyle&quot;:&quot;elbowEdgeStyle&quot;,&quot;elbow&quot;:&quot;vertical&quot;,&quot;curved&quot;:0,&quot;rounded&quot;:0};" vertex="1" parent="hrl10EN9nCq2Uu-qsbJR-6">
          <mxGeometry x="45" y="80" width="10" height="170" as="geometry" />
        </mxCell>
        <mxCell id="hrl10EN9nCq2Uu-qsbJR-8" value="user profile" style="html=1;verticalAlign=bottom;endArrow=open;dashed=1;endSize=8;edgeStyle=elbowEdgeStyle;elbow=vertical;curved=0;rounded=0;" edge="1" parent="1" source="hrl10EN9nCq2Uu-qsbJR-2" target="aM9ryv3xv72pqoxQDRHE-6">
          <mxGeometry relative="1" as="geometry">
            <mxPoint x="280" y="220" as="targetPoint" />
            <Array as="points">
              <mxPoint x="370" y="220" />
            </Array>
            <mxPoint x="460" y="220" as="sourcePoint" />
          </mxGeometry>
        </mxCell>
        <mxCell id="hrl10EN9nCq2Uu-qsbJR-9" value="err: user exists" style="html=1;verticalAlign=bottom;endArrow=open;dashed=1;endSize=8;edgeStyle=elbowEdgeStyle;elbow=vertical;curved=0;rounded=0;" edge="1" parent="1" source="aM9ryv3xv72pqoxQDRHE-6" target="aM9ryv3xv72pqoxQDRHE-1">
          <mxGeometry relative="1" as="geometry">
            <mxPoint x="120" y="180" as="targetPoint" />
            <Array as="points">
              <mxPoint x="185" y="180" />
            </Array>
            <mxPoint x="260" y="180" as="sourcePoint" />
          </mxGeometry>
        </mxCell>
        <mxCell id="hrl10EN9nCq2Uu-qsbJR-12" value="activation link" style="html=1;verticalAlign=bottom;endArrow=block;edgeStyle=elbowEdgeStyle;elbow=horizontal;curved=0;rounded=0;" edge="1" parent="1" source="hrl10EN9nCq2Uu-qsbJR-2" target="hrl10EN9nCq2Uu-qsbJR-7">
          <mxGeometry relative="1" as="geometry">
            <mxPoint x="480" y="240" as="sourcePoint" />
            <Array as="points">
              <mxPoint x="525" y="240" />
            </Array>
            <mxPoint x="610" y="240" as="targetPoint" />
          </mxGeometry>
        </mxCell>
      </root>
    </mxGraphModel>
  </diagram>
</mxfile>
